<?xml version="1.0" encoding="UTF-8"?>
<svg width="321px" height="321px" viewBox="0 0 321 321" version="1.1" xmlns="http://www.w3.org/2000/svg" xmlns:xlink="http://www.w3.org/1999/xlink">
    <!-- Generator: Sketch 48.2 (47327) - http://www.bohemiancoding.com/sketch -->
    <title>planet-earth</title>
    <desc>Created with Sketch.</desc>
    <defs></defs>
    <g id="Page-1" stroke="none" stroke-width="1" fill="none" fill-rule="evenodd">
        <g id="planet-earth" transform="translate(0.000000, -56.000000)" fill-rule="nonzero">
            <path d="M187.61,58.38 L189.25,58.68 L187.61,58.38 Z" id="Shape" fill="#48BBEE"></path>
            <path d="M212.79,64.92 C225.473641,69.3604554 237.545798,75.3847741 248.72,82.85 C259.866611,90.2900571 270.038895,99.0950627 279,109.06 C281.77,112.14 284.41,115.35 286.94,118.64 C288.833333,121.1 290.653333,123.616667 292.4,126.19 L292.8,126.79 C294.42,129.203333 295.976667,131.66 297.47,134.16 L298.13,135.28 C299.27,137.22 300.37,139.17 301.43,141.16 C310.60604,158.466572 316.505077,177.319759 318.83,196.77 C318.450018,196.830562 318.061525,196.810115 317.69,196.71 L266.29,180.4 L268.69,191.05 C269.188097,193.249603 270.591494,195.136783 272.554657,196.246894 C274.51782,197.357004 276.858357,197.586908 279,196.88 L284.93,194.88 C285.742615,194.606248 286.637563,194.744219 287.33,195.25 C288.021198,195.752484 288.430119,196.555456 288.43,197.41 L288.43,211.9 C288.434097,217.814289 285.632705,223.379968 280.88,226.9 L265.62,239.17 C264.488135,240.072589 263.037816,240.475942 261.602473,240.287329 C260.16713,240.098717 258.870255,239.334365 258.01,238.17 L233.32,205.25 C230.704837,201.808056 227.106041,199.241473 223,197.89 L213.32,194.66 L253.68,247.07 C257.366726,250.153745 262.1055,251.687932 266.9,251.35 L274.47,250.83 C275.288561,250.783909 276.084751,251.106788 276.64,251.71 C277.189681,252.324744 277.425739,253.158323 277.28,253.97 L274.17,271.14 C274.065751,271.69949 273.785454,272.211032 273.37,272.6 L242.12,302.04 L218.77,361.04 C218.466747,361.808239 217.82384,362.392028 217.03,362.62 C208.793086,365.010262 199.940655,363.983005 192.47,359.77 C185.037039,355.637176 179.582996,348.683542 177.34,340.48 C175.54,333.95 174.66,329.6 174.66,327.18 L174.66,304.94 L171.06,303.55 C162.750329,300.351921 155.42851,295.023513 149.83,288.1 L141.58,277.88 L106.13,284.21 C104.621886,284.477451 103.091389,284.598016 101.56,284.57 C111.728678,321.922269 135.073177,354.331765 167.28,375.81 C164.86,375.92 162.44,375.99 160,375.99 C238.067572,376.031329 304.767657,319.727143 317.829332,242.760007 C330.891007,165.79287 286.500447,90.6360946 212.79,64.92 Z" id="Shape" fill="#48BBEE"></path>
            <path d="M137.54,181.13 C143.285204,181.1292 148.902986,182.823231 153.69,186 L167.38,195.07 C170.117831,196.88095 173.536842,197.330917 176.65,196.29 L201.28,188.05 L205.4,184.33 C210.165276,180.029313 210.58435,172.695523 206.34,167.88 L180.34,175.6 C179.442244,175.865787 178.470864,175.641914 177.78,175.01 L160.3,159.01 C159.536063,158.317255 158.441482,158.126387 157.488165,158.519684 C156.534848,158.91298 155.893257,159.820117 155.84,160.85 L157.35,172.72 C157.48304,173.820757 156.921933,174.889189 155.940187,175.404495 C154.958441,175.9198 153.760383,175.774731 152.93,175.04 L138.41,162.17 C133.405776,159.521951 127.274762,160.323914 123.12,164.17 L118.48,175.83 C117.750506,177.659782 116.528722,179.251908 114.95,180.43 L107.58,185.93 L132.43,181.55 C134.117992,181.262562 135.827729,181.122036 137.54,181.13 Z" id="Shape" fill="#48BBEE"></path>
            <path d="M167.53,56.18 L168.63,56.23 L167.53,56.18 Z" id="Shape" fill="#48BBEE"></path>
            <path d="M236.79,151 C237.916231,151.008102 239.01587,150.657898 239.93,150 C241.014676,149.205087 241.752221,148.023583 241.99,146.7 C242.275801,145.248895 241.942269,143.744376 241.07,142.55 L227.42,123.83 C226.2964,122.291972 224.437622,121.470208 222.54385,121.674261 C220.650078,121.878313 219.009022,123.07718 218.23885,124.819261 C217.468679,126.561341 217.6864,128.581972 218.81,130.12 L232.46,148.84 C233.474511,150.211431 235.084172,151.014403 236.79,151 Z" id="Shape" fill="#48BBEE"></path>
            <path d="M194.66,59.78 C195.686667,60.0066667 196.713333,60.2433333 197.74,60.49 C196.713333,60.2433333 195.686667,60.0066667 194.66,59.78 Z" id="Shape" fill="#48BBEE"></path>
            <path d="M191.06,59 L192.78,59.34 L191.06,59 Z" id="Shape" fill="#48BBEE"></path>
            <path d="M163.71,56 L164.81,56 L163.71,56 Z" id="Shape" fill="#48BBEE"></path>
            <path d="M210,64 L212.59,64.88 L210,64 Z" id="Shape" fill="#48BBEE"></path>
            <path d="M172.23,56.46 L172.77,56.46 L172.23,56.46 Z" id="Shape" fill="#48BBEE"></path>
            <path d="M202.15,61.62 C204.676667,62.2866667 207.18,63.0366667 209.66,63.87 C207.186667,63.0633333 204.683333,62.3133333 202.15,61.62 Z" id="Shape" fill="#48BBEE"></path>
            <path d="M199,60.8 L201.11,61.34 L199,60.8 Z" id="Shape" fill="#48BBEE"></path>
            <path d="M207.72,156.11 L216.02,149.97 C216.32897,149.700783 216.604296,149.395237 216.84,149.06 L217,149 C218.694761,146.916959 218.571408,143.89747 216.712384,141.959609 C214.853361,140.021748 211.841594,139.773165 209.69,141.38 L202.8,146.47 L189.78,146.47 C186.833561,146.47 184.445,148.858561 184.445,151.805 C184.445,154.751439 186.833561,157.14 189.78,157.14 L204.59,157.14 C205.715936,157.135886 206.811648,156.775316 207.72,156.11 Z" id="Shape" fill="#48BBEE"></path>
            <path d="M179.51,57.19 L180.82,57.35 L179.51,57.19 Z" id="Shape" fill="#48BBEE"></path>
            <path d="M184.14,57.81 L185.39,58.01 L184.14,57.81 Z" id="Shape" fill="#48BBEE"></path>
            <path d="M175.83,56.78 L177.12,56.91 L175.83,56.78 Z" id="Shape" fill="#48BBEE"></path>
            <path d="M101.57,284.57 C95.8641737,284.487231 90.3778356,282.357992 86.11,278.57 L85.7,278.21 L85.06,277.6 L84.5,277.03 L83.99,276.48 C83.76,276.23 83.55,275.96 83.33,275.7 L82.96,275.25 C82.63,274.82 82.3,274.38 81.96,273.92 L78.08,268.14 C72.6183425,259.997826 70.3372635,250.133316 71.67,240.42 C71.67,240.34 71.67,240.26 71.67,240.19 C71.74,239.72 71.83,239.26 71.92,238.8 C72.01,238.34 72.05,237.98 72.14,237.57 C72.14,237.37 72.24,237.18 72.29,236.98 C72.44,236.31 72.59,235.65 72.78,234.98 C72.78,234.88 72.85,234.78 72.88,234.67 C73.3502122,233.059023 73.9213409,231.479234 74.59,229.94 L74.71,229.69 C75.04,228.95 75.38,228.22 75.71,227.49 L84,211.72 L83.88,206.22 C83.6640719,197.889041 89.0304272,190.436679 97,188 L89.76,186 C84.2213724,184.46819 80.2878414,179.559337 80,173.82 L79.62,166.69 C79.2235565,159.594703 84.4628955,153.43595 91.53,152.69 L98.63,151.93 L98.63,139.33 C98.6268436,138.492376 99.0198915,137.702572 99.69,137.2 L120.89,121.2 C122.327997,120.122281 123.52946,118.76085 124.42,117.2 L128.07,110.83 L104.37,115.48 C103.586743,115.63017 102.77723,115.425044 102.16,114.92 C101.533037,114.419297 101.165584,113.662343 101.16,112.86 L101.16,105.55 C101.144595,98.2878844 104.434642,91.4133778 110.1,86.87 L143.56,60 C144.417491,59.3135461 145.607889,59.2222823 146.56,59.77 L169.94,73.24 C170.561465,73.5961417 171.299304,73.6897213 171.99,73.5 C172.681369,73.310937 173.266148,72.848889 173.61,72.22 L182.54,57.68 C206.199813,61.0175465 228.803181,69.6446298 248.67,82.92 C237.496066,75.4543115 225.423849,69.4299627 212.74,64.99 L212.59,64.94 L210,64 L209.62,63.88 C207.14,63.0733333 204.636667,62.3233333 202.11,61.63 L201.11,61.35 L199,60.8 L197.72,60.49 C196.7,60.2433333 195.673333,60.0066667 194.64,59.78 L192.76,59.37 L191.06,59 L189.26,58.65 L187.62,58.35 L185.4,58 L184.15,57.8 C183.043333,57.6333333 181.933333,57.4766667 180.82,57.33 L179.51,57.17 L177.13,56.9 L175.84,56.77 L172.77,56.5 L172.23,56.5 C171.03,56.41 169.83,56.34 168.63,56.27 L167.53,56.22 L164.81,56.12 L163.71,56.12 C162.48,56.12 161.24,56.12 160,56.12 C71.63444,56.12 2.84217094e-14,127.75444 1.42108547e-14,216.12 C-3.15544362e-30,304.48556 71.63444,376.12 160,376.12 C162.44,376.12 164.87,376.04 167.28,375.94 C135.052257,354.427389 111.708778,321.968196 101.57,284.57 Z M75.45,114.63 C76.1902439,113.423415 77.3800562,112.560855 78.7570204,112.23256 C80.1339845,111.904265 81.5849852,112.137203 82.79,112.88 L91.32,118.11 C93.258432,119.300579 94.2297913,121.588491 93.74,123.81 L89.97,140.81 C89.4274636,143.247931 87.2675631,144.984159 84.77,144.99 C84.3797032,144.98992 83.9906323,144.946317 83.61,144.86 C80.7382294,144.218015 78.927037,141.373773 79.56,138.5 L82.51,125.23 L77.21,122 C75.9934331,121.261243 75.1228732,120.066596 74.7922755,118.682218 C74.4616778,117.29784 74.6985073,115.838741 75.45,114.63 Z" id="Shape" fill="#0E94D7"></path>
            <path d="M240.69,149.28 C240.456345,149.534455 240.198461,149.765546 239.92,149.97 C240.199553,149.766895 240.457567,149.535688 240.69,149.28 Z" id="Shape" fill="#00E389"></path>
            <path d="M220.25,248.29 L219.67,249.17 C215.713952,255.105344 209.052925,258.6704 201.92,258.67 L139.42,258.67 C132.287075,258.6696 125.626048,262.234656 121.67,268.17 L111.67,283.24 L106.19,284.24 C102.176785,284.957524 98.0469356,284.640903 94.19,283.32 C98.0494893,284.628462 102.176158,284.94484 106.19,284.24 L141.64,277.91 L149.89,288.13 C155.48851,295.053513 162.810329,300.381921 171.12,303.58 L174.72,304.97 L174.72,327.2 C174.72,329.62 175.6,333.97 177.4,340.5 C181.252524,354.324949 193.838313,363.894073 208.19,363.91 C211.204317,363.908852 214.203561,363.484716 217.1,362.65 C217.89384,362.422028 218.536747,361.838239 218.84,361.07 L242.19,302.07 L273.44,272.63 C273.855454,272.241032 274.135751,271.72949 274.24,271.17 L277.3,254 C277.445739,253.188323 277.209681,252.354744 276.66,251.74 C276.104751,251.136788 275.308561,250.813909 274.49,250.86 L266.92,251.38 C262.1255,251.717932 257.386726,250.183745 253.7,247.1 L230.7,243.68 C226.618201,243.066002 222.548407,244.861385 220.25,248.29 Z" id="Shape" fill="#00E389"></path>
            <path d="M204.59,157.13 C205.712715,157.135293 206.808324,156.785259 207.72,156.13 C206.807703,156.784024 205.712505,157.133928 204.59,157.13 Z" id="Shape" fill="#00E389"></path>
            <path d="M296.08,178.25 L299.47,190.94 L266.29,180.4 L317.67,196.73 C318.041525,196.830115 318.430018,196.850562 318.81,196.79 C316.485077,177.339759 310.58604,158.486572 301.41,141.18 L296.41,157.85 C294.408342,164.487511 294.294076,171.55122 296.08,178.25 Z" id="Shape" fill="#00E389"></path>
            <path d="M292.37,126.18 L292.77,126.78 L292.37,126.18 Z" id="Shape" fill="#00E389"></path>
            <path d="M297.45,134.15 L298.11,135.27 L297.45,134.15 Z" id="Shape" fill="#00E389"></path>
            <path d="M167.39,195.08 L153.69,186 L171.69,197.94 L201.26,188.06 L176.63,196.3 C173.52596,197.332644 170.119651,196.882893 167.39,195.08 Z" id="Shape" fill="#00E389"></path>
            <path d="M182.54,57.63 L182.82,57.63 C191.444297,58.8598178 199.952935,60.7963357 208.26,63.42 C208.86,63.61 209.43,63.84 210.02,64.03 C213.39,65.14 216.71,66.34 220.02,67.66 C221.11,68.1 222.17,68.59 223.25,69.06 C225.98,70.24 228.68,71.46 231.33,72.78 C232.55,73.39 233.75,74.03 234.95,74.67 C237.41,76.0033333 239.83,77.3666667 242.21,78.76 C243.423333,79.4866667 244.626667,80.23 245.82,80.99 C246.74,81.58 247.62,82.22 248.53,82.82 C184.720702,85.8112655 128.797884,126.452391 106.25,186.22 L107.55,185.97 L114.92,180.47 C116.498722,179.291908 117.720506,177.699782 118.45,175.87 L123.09,164.21 C127.243418,160.36105 133.376338,159.558837 138.38,162.21 L152.9,175.08 C153.730383,175.814731 154.928441,175.9598 155.910187,175.444495 C156.891933,174.929189 157.45304,173.860757 157.32,172.76 L155.81,160.89 C155.863257,159.860117 156.504848,158.95298 157.458165,158.559684 C158.411482,158.166387 159.506063,158.357255 160.27,159.05 L177.75,175.05 C178.440864,175.681914 179.412244,175.905787 180.31,175.64 L206.31,167.92 L192,172.15 L190.65,169.74 C188.322988,165.576113 189.149573,160.360362 192.65,157.12 L189.82,157.12 C186.873561,157.12 184.485,154.731439 184.485,151.785 C184.485,148.838561 186.873561,146.45 189.82,146.45 L202.88,146.45 L209.77,141.36 C211.929691,139.86122 214.860289,140.164573 216.667194,142.073945 C218.474099,143.983316 218.615508,146.926177 217,149 L224,146.68 L230.92,146.68 L232.48,148.81 L218.83,130.09 C217.093064,127.712414 217.612414,124.376936 219.99,122.64 C222.367586,120.903064 225.703064,121.422414 227.44,123.8 L241.09,142.52 C241.963409,143.71386 242.297052,145.218881 242.01,146.67 L252.62,143.74 C258.190604,142.202484 262.899478,138.471468 265.67,133.4 L279,109.06 C270.038675,99.0952873 259.86642,90.2903074 248.72,82.85 C228.853181,69.5746298 206.249813,60.9475465 182.59,57.61 L182.54,57.63 Z" id="Shape" fill="#00E389"></path>
            <path d="M77.21,122 L82.5,125.24 L79.55,138.51 C78.917037,141.383773 80.7282294,144.228015 83.6,144.87 C83.9806323,144.956317 84.3697032,144.99992 84.76,145 C87.2575631,144.994159 89.4174636,143.257931 89.96,140.82 L93.73,123.82 C94.2197913,121.598491 93.248432,119.310579 91.31,118.12 L82.78,112.89 C81.1562279,111.893229 79.1240295,111.838447 77.4489144,112.746289 C75.7737993,113.654131 74.7102573,115.386676 74.6589144,117.291289 C74.6075714,119.195903 75.5762278,120.983229 77.2,121.98 L77.21,122 Z" id="Shape" fill="#00BBBB"></path>
            <path d="M106.25,186.22 C128.80652,126.488094 184.701616,85.8724838 248.48,82.87 C247.57,82.26 246.69,81.62 245.77,81.04 C244.576667,80.28 243.373333,79.5366667 242.16,78.81 C239.78,77.3833333 237.36,76.02 234.9,74.72 C233.7,74.08 232.5,73.44 231.28,72.83 C228.63,71.51 225.93,70.28 223.2,69.11 C222.12,68.65 221.06,68.11 219.97,67.71 C216.71,66.39 213.38,65.19 209.97,64.08 C209.38,63.89 208.8,63.65 208.21,63.47 C199.902935,60.8463357 191.394297,58.9098178 182.77,57.68 L182.49,57.68 L173.56,72.22 C173.216148,72.848889 172.631369,73.310937 171.94,73.5 C171.249385,73.6908528 170.511104,73.5972172 169.89,73.24 L146.57,59.73 C145.617889,59.1822823 144.427491,59.2735461 143.57,59.96 L110.17,86.89 C104.505818,91.43431 101.216058,98.308215 101.23,105.57 L101.23,112.88 C101.235584,113.682343 101.603037,114.439297 102.23,114.94 C102.84723,115.445044 103.656743,115.65017 104.44,115.5 L128.14,110.85 L124.49,117.22 C123.59946,118.78085 122.397997,120.142281 120.96,121.22 L99.76,137.22 C99.0898915,137.722572 98.6968436,138.512376 98.7,139.35 L98.7,152 L91.6,152.76 C84.5328955,153.50595 79.2935565,159.664703 79.69,166.76 L80.07,173.89 C80.3772442,179.590336 84.2827209,184.461121 89.78,186 L97.02,188 L106.25,186.22 Z" id="Shape" fill="#00BBBB"></path>
            <path d="M72.19,237.6 C72.19,237.4 72.29,237.21 72.34,237.01 C72.29,237.21 72.24,237.41 72.19,237.6 Z" id="Shape" fill="#00BBBB"></path>
            <path d="M74.65,229.93 L74.77,229.68 L74.65,229.93 Z" id="Shape" fill="#00BBBB"></path>
            <path d="M71.73,240.23 C71.8,239.76 71.89,239.3 71.98,238.84 C71.89,239.3 71.79,239.76 71.73,240.23 Z" id="Shape" fill="#00BBBB"></path>
            <path d="M74.3,261 C73.3707134,258.717612 72.6543342,256.35423 72.16,253.94 C72.09,253.61 72.02,253.28 71.96,252.94 C71.6851491,251.418693 71.4981726,249.882815 71.4,248.34 C71.34,247.34 71.31,246.42 71.32,245.46 C71.33,244.5 71.4,243.27 71.5,242.17 C71.55,241.58 71.61,241 71.69,240.41 C70.3572635,250.123316 72.6383425,259.987826 78.1,268.13 C77.5933333,267.37 77.1133333,266.6 76.66,265.82 C75.7663166,264.267978 74.9778759,262.657688 74.3,261 Z" id="Shape" fill="#00BBBB"></path>
            <path d="M252.61,143.74 L242,146.66 C241.816428,147.636459 241.366529,148.543177 240.7,149.28 C240.467034,149.535151 240.209078,149.766307 239.93,149.97 C238.787145,150.803439 237.359872,151.148424 235.962523,150.928975 C234.565175,150.709526 233.312361,149.943641 232.48,148.8 L230.92,146.67 L224,146.67 L217,149 L216.85,149.05 C216.614068,149.385055 216.338765,149.690575 216.03,149.96 L207.73,156.1 C206.818013,156.75464 205.72261,157.104609 204.6,157.1 L192.6,157.1 C189.099573,160.340362 188.272988,165.556113 190.6,169.72 L191.95,172.13 L206.3,167.87 C210.54435,172.685523 210.125276,180.019313 205.36,184.32 L201.24,188.04 L171.67,197.92 L153.67,185.98 C147.407575,181.819252 139.782313,180.232596 132.38,181.55 L107.55,186 L106.25,186.25 L97,188 L106.27,186.24 C94.3999738,217.702616 92.7518483,252.1068 101.56,284.56 C95.8631719,284.484131 90.3779399,282.389962 86.08,278.65 C91.5479924,283.460959 98.9099673,285.518631 106.08,284.24 L111.56,283.24 L121.56,268.17 C125.516048,262.234656 132.177075,258.6696 139.31,258.67 L201.81,258.67 C208.942925,258.6704 215.603952,255.105344 219.56,249.17 L220.14,248.29 C222.431648,244.857406 226.497419,243.054291 230.58,243.66 L253.58,247.08 L213.22,194.67 L222.9,197.9 C227.01702,199.271911 230.617357,201.867502 233.22,205.34 L258,238.25 C258.860255,239.414365 260.15713,240.178717 261.592473,240.367329 C263.027816,240.555942 264.478135,240.152589 265.61,239.25 L280.87,226.98 C285.622705,223.459968 288.424097,217.894289 288.42,211.98 L288.42,197.45 C288.418581,196.59333 288.00619,195.789367 287.311235,195.288445 C286.61628,194.787523 285.72317,194.650484 284.91,194.92 L278.98,196.92 C276.828208,197.618597 274.481231,197.373451 272.52025,196.245267 C270.559268,195.117083 269.16765,193.211357 268.69,191 L266.29,180.35 L299.47,190.89 L296.08,178.2 C294.288398,171.499062 294.399207,164.431479 296.4,157.79 L301.4,141.12 C300.35,139.12 299.23,137.18 298.1,135.24 L297.44,134.12 C295.946667,131.62 294.39,129.163333 292.77,126.75 L292.37,126.15 C290.623333,123.576667 288.803333,121.06 286.91,118.6 C284.38,115.31 281.74,112.1 278.97,109.02 L265.67,133.4 C262.898078,138.474337 258.184862,142.205933 252.61,143.74 Z" id="Shape" fill="#FFEDB9"></path>
            <path d="M84,276.52 L84.51,277.07 L84,276.52 Z" id="Shape" fill="#FFEDB9"></path>
            <path d="M83,275.29 L83.37,275.74 L83,275.29 Z" id="Shape" fill="#FFEDB9"></path>
            <path d="M85.05,277.64 L85.69,278.25 L85.05,277.64 Z" id="Shape" fill="#FFEDB9"></path>
            <path d="M71.33,245.51 C71.33,244.41 71.41,243.32 71.51,242.22 C71.41,243.32 71.34,244.41 71.33,245.51 Z" id="Shape" fill="#FFEDB9"></path>
            <path d="M72.94,234.67 C72.94,234.77 72.87,234.87 72.84,234.98 C72.86,234.9 72.91,234.79 72.94,234.67 Z" id="Shape" fill="#FFEDB9"></path>
            <path d="M71.41,248.39 C71.5167009,249.936847 71.7137033,251.476138 72,253 C71.7136583,251.476145 71.5166555,249.936852 71.41,248.39 Z" id="Shape" fill="#FFEDB9"></path>
            <path d="M72.17,254 C72.6639962,256.393674 73.3769963,258.736867 74.3,261 C73.3765159,258.737038 72.6635021,256.3938 72.17,254 Z" id="Shape" fill="#FFEDB9"></path>
            <path d="M74.3,261 C74.9801798,262.661601 75.7719875,264.275285 76.67,265.83 C75.7721759,264.275185 74.9803746,262.661514 74.3,261 Z" id="Shape" fill="#FFEDB9"></path>
            <path d="M101.58,284.53 C92.7718483,252.0768 94.4199738,217.672616 106.29,186.21 L97,188 C88.9999155,190.425941 83.61096,197.903321 83.84,206.26 L83.96,211.76 L75.79,227.52 C75.42,228.24 75.07,228.98 74.79,229.72 L74.67,229.97 C74.0007974,231.509018 73.4296561,233.088842 72.96,234.7 C72.96,234.82 72.88,234.93 72.85,235.05 C72.66,235.71 72.51,236.38 72.36,237.05 C72.36,237.25 72.26,237.44 72.21,237.64 C72.12,238.05 72.06,238.46 71.99,238.87 C71.92,239.28 71.81,239.8 71.74,240.26 C71.74,240.34 71.74,240.42 71.74,240.49 C71.66,241.07 71.6,241.66 71.55,242.25 C71.45,243.35 71.38,244.44 71.37,245.54 C71.36,246.64 71.37,247.46 71.45,248.42 C71.5446328,249.956016 71.7282745,251.485251 72,253 C72.06,253.33 72.13,253.66 72.2,254 C73.0496005,258.181393 74.5727686,262.197018 76.71,265.89 C77.1633333,266.676667 77.6433333,267.446667 78.15,268.2 L82,274 C82.31,274.46 82.63,274.9 83,275.33 L83.37,275.78 C83.58,276.04 83.8,276.31 84.03,276.56 L84.54,277.11 L85.1,277.68 L85.74,278.29 L86.15,278.65 C90.4391096,282.368079 95.9042372,284.450707 101.58,284.53 Z" id="Shape" fill="#FFD586"></path>
        </g>
    </g>
</svg>