<?xml version="1.0" standalone="no"?>
<!DOCTYPE svg PUBLIC "-//W3C//DTD SVG 20010904//EN"
 "http://www.w3.org/TR/2001/REC-SVG-20010904/DTD/svg10.dtd">
<svg version="1.0" xmlns="http://www.w3.org/2000/svg"
 width="136.000000pt" height="136.000000pt" viewBox="0 0 136.000000 136.000000"
 preserveAspectRatio="xMidYMid meet">
<metadata>
Created by potrace 1.11, written by Peter Selinger 2001-2013
</metadata>
<g transform="translate(0.000000,136.000000) scale(0.100000,-0.100000)"
fill="#000000" stroke="none">
<path d="M0 680 l0 -680 680 0 680 0 0 680 0 680 -680 0 -680 0 0 -680z m754
385 c152 -40 269 -168 296 -327 42 -242 -158 -468 -415 -468 l-45 0 0 53 c0
68 20 88 95 98 103 14 191 88 216 183 16 60 5 148 -24 199 -58 98 -123 128
-294 135 l-123 5 0 -312 0 -312 -25 -25 c-21 -21 -33 -25 -73 -22 l-47 3 -3
403 -2 402 193 0 c140 0 209 -4 251 -15z"/>
</g>
</svg>
