<?xml version="1.0" encoding="utf-8"?>
<!-- Generator: Adobe Illustrator 16.0.0, SVG Export Plug-In . SVG Version: 6.00 Build 0)  -->
<!DOCTYPE svg PUBLIC "-//W3C//DTD SVG 1.1//EN" "http://www.w3.org/Graphics/SVG/1.1/DTD/svg11.dtd">
<svg version="1.1" id="Calque_1" xmlns="http://www.w3.org/2000/svg" xmlns:xlink="http://www.w3.org/1999/xlink" x="0px" y="0px"
	 width="459px" height="448px" viewBox="0 0 459 448" enable-background="new 0 0 459 448" xml:space="preserve">
<rect x="196.59" y="140.74" transform="matrix(0.7071 0.7071 -0.7071 0.7071 171.1869 -119.0142)" fill="#706F6F" width="65.333" height="12.787"/>
<rect x="159.113" y="178.217" transform="matrix(0.7071 0.7071 -0.7071 0.7071 186.7103 -81.5374)" fill="#706F6F" width="65.333" height="12.787"/>
<rect x="276.493" y="220.643" transform="matrix(0.7071 0.7071 -0.7071 0.7071 251.0881 -152.1111)" fill="#706F6F" width="65.332" height="12.787"/>
<rect x="239.016" y="258.121" transform="matrix(0.7071 0.7071 -0.7071 0.7071 266.6134 -114.6343)" fill="#706F6F" width="65.333" height="12.786"/>
<rect x="220.157" y="168.647" transform="matrix(0.7071 0.7071 -0.7071 0.7071 218.4784 -119.4997)" fill="#706F6F" width="66.666" height="70.667"/>
<rect x="55.094" y="49.104" transform="matrix(-0.7071 -0.7071 0.7071 -0.7071 169.1026 256.9191)" fill="#6B95CE" width="165.334" height="88.666"/>
<rect x="280.896" y="274.907" transform="matrix(-0.7071 -0.7071 0.7071 -0.7071 394.9046 802.0533)" fill="#6B95CE" width="165.333" height="88.665"/>
<rect x="282.589" y="58.744" transform="matrix(0.7071 0.7071 -0.7071 0.7071 185.2457 -199.0701)" fill="#DADADA" width="100.667" height="130.667"/>
<g>
	<defs>
		
			<rect id="SVGID_1_" x="8.211" y="-27.377" transform="matrix(-0.7071 -0.7071 0.7071 -0.7071 281.7198 529.6038)" width="484.666" height="467.667"/>
	</defs>
	<clipPath id="SVGID_2_">
		<use xlink:href="#SVGID_1_"  overflow="visible"/>
	</clipPath>
	<path clip-path="url(#SVGID_2_)" fill="#DADADA" d="M414.947,113.707c-19.786,19.786-51.867,19.787-71.654,0
		c-19.786-19.786-19.785-51.867,0.001-71.653s51.867-19.787,71.653,0C434.734,61.84,434.733,93.92,414.947,113.707"/>
	<path clip-path="url(#SVGID_2_)" fill="#DADADA" d="M322.316,205.866c-19.786,19.786-37.726,5.645-57.512-14.143
		c-19.786-19.786-33.928-37.725-14.142-57.511c19.786-19.787,51.867-19.787,71.653-0.001
		C342.104,153.999,342.103,186.08,322.316,205.866"/>
	
		<rect x="134.18" y="212.463" transform="matrix(0.7071 0.7071 -0.7071 0.7071 246.7191 -50.6613)" clip-path="url(#SVGID_2_)" fill="#DADADA" width="100.666" height="120.048"/>
	<path clip-path="url(#SVGID_2_)" fill="#DADADA" d="M190.728,195.09c13.395-13.395,30.72,1.361,50.506,21.147
		c19.787,19.788,34.542,37.112,21.147,50.506c-13.396,13.395-40.292,8.213-60.079-11.574
		C182.515,235.383,177.333,208.486,190.728,195.09"/>
	<path clip-path="url(#SVGID_2_)" fill="#DADADA" d="M109.591,276.229c13.395-13.396,30.719,1.359,50.506,21.146
		s34.542,37.111,21.147,50.506s-40.292,8.213-60.079-11.574C101.378,316.521,96.196,289.623,109.591,276.229"/>
	<path clip-path="url(#SVGID_2_)" fill="#DADADA" d="M183.723,202.095c19.786-19.786,37.725-5.645,57.513,14.143
		c19.786,19.786,33.927,37.725,14.141,57.51c-19.786,19.787-51.867,19.787-71.653,0.002
		C163.936,253.963,163.937,221.882,183.723,202.095"/>
	<path clip-path="url(#SVGID_2_)" fill="#706F6F" d="M419.661,71.752c-7.42,7.419-21.139,5.731-30.642-3.771
		c-9.503-9.503-11.191-23.223-3.771-30.642c7.419-7.42,21.139-5.731,30.642,3.772C425.393,50.614,427.08,64.333,419.661,71.752"/>
	<path clip-path="url(#SVGID_2_)" fill="#9D9D9C" d="M123.147,332.439c-41.135-41.137-91.789-57.176-113.137-35.826l148.963,148.963
		C180.322,424.227,164.283,373.574,123.147,332.439"/>
</g>
</svg>
